<svg xmlns="http://www.w3.org/2000/svg" width="20" height="19" viewBox="0 0 20 19" fill="none"><path d="M8.04348 14.5227C8.04347 14.6252 8.00224 14.7234 7.92886 14.7959C7.85548 14.8683 7.75595 14.909 7.65217 14.9091H4.91304V17.6136C4.91304 17.7161 4.87182 17.8144 4.79843 17.8868C4.72505 17.9593 4.62552 18 4.52174 18C4.41796 18 4.31843 17.9593 4.24504 17.8868C4.17166 17.8144 4.13043 17.7161 4.13043 17.6136V14.9091H1.3913C1.28752 14.9091 1.18799 14.8683 1.11461 14.7959C1.04123 14.7234 1 14.6252 1 14.5227C1 14.4202 1.04123 14.3219 1.11461 14.2495C1.18799 14.177 1.28752 14.1363 1.3913 14.1363H4.13043V11.4317C4.13043 11.3293 4.17166 11.231 4.24504 11.1585C4.31843 11.0861 4.41796 11.0454 4.52174 11.0454C4.62552 11.0454 4.72505 11.0861 4.79843 11.1585C4.87182 11.231 4.91304 11.3293 4.91304 11.4317V14.1363H7.65217C7.75595 14.1363 7.85548 14.177 7.92886 14.2495C8.00224 14.3219 8.04347 14.4202 8.04348 14.5227ZM7.65217 3.31801H1.3913C1.28752 3.31801 1.18799 3.35871 1.11461 3.43117C1.04123 3.50363 1 3.6019 1 3.70438C1 3.80685 1.04123 3.90512 1.11461 3.97758C1.18799 4.05004 1.28752 4.09074 1.3913 4.09074H7.65217C7.75595 4.09074 7.85548 4.05004 7.92887 3.97758C8.00225 3.90512 8.04348 3.80685 8.04348 3.70438C8.04348 3.6019 8.00225 3.50363 7.92887 3.43117C7.85548 3.35871 7.75595 3.31801 7.65217 3.31801ZM12.3478 13.37H18.6087C18.7125 13.37 18.812 13.3293 18.8854 13.2568C18.9588 13.1844 19 13.0861 19 12.9836C19 12.8812 18.9588 12.7829 18.8854 12.7104C18.812 12.638 18.7125 12.5973 18.6087 12.5973H12.3478C12.244 12.5973 12.1445 12.638 12.0711 12.7104C11.9977 12.7829 11.9565 12.8812 11.9565 12.9836C11.9565 13.0861 11.9977 13.1844 12.0711 13.2568C12.1445 13.3293 12.244 13.37 12.3478 13.37ZM18.6087 15.6754H12.3478C12.244 15.6754 12.1445 15.7161 12.0711 15.7885C11.9977 15.861 11.9565 15.9593 11.9565 16.0617C11.9565 16.1642 11.9977 16.2625 12.0711 16.3349C12.1445 16.4074 12.244 16.4481 12.3478 16.4481H18.6087C18.7125 16.4481 18.812 16.4074 18.8854 16.3349C18.9588 16.2625 19 16.1642 19 16.0617C19 15.9593 18.9588 15.861 18.8854 15.7885C18.812 15.7161 18.7125 15.6754 18.6087 15.6754ZM12.8537 6.2958C12.9271 6.36825 13.0267 6.40895 13.1304 6.40895C13.2342 6.40895 13.3338 6.36825 13.4071 6.2958L15.4783 4.25082L17.5494 6.29581C17.6228 6.36817 17.7223 6.40879 17.826 6.40875C17.9298 6.40871 18.0292 6.368 18.1026 6.29558C18.1759 6.22316 18.2171 6.12494 18.2172 6.02252C18.2172 5.9201 18.1761 5.82185 18.1028 5.74936L16.0317 3.70438L18.1028 1.65939C18.1761 1.5869 18.2172 1.48866 18.2172 1.38623C18.2171 1.28381 18.1759 1.1856 18.1026 1.11317C18.0292 1.04075 17.9298 1.00004 17.826 1C17.7223 0.999958 17.6228 1.04058 17.5494 1.11295L15.4783 3.15793L13.4071 1.11295C13.3337 1.04058 13.2342 0.999958 13.1305 1C13.0268 1.00004 12.9273 1.04075 12.854 1.11317C12.7806 1.1856 12.7394 1.28381 12.7393 1.38623C12.7393 1.48866 12.7804 1.5869 12.8537 1.65939L14.9249 3.70438L12.8537 5.74936C12.7803 5.82183 12.7391 5.92011 12.7391 6.02259C12.7391 6.12506 12.7803 6.22334 12.8537 6.2958Z" fill="white" stroke="white" stroke-width="0.5"/></svg>