<svg xmlns="http://www.w3.org/2000/svg" width="28" height="14" viewBox="0 0 28 14" fill="none"><path d="M21.1724 10.9623V3.49057M21.1724 10.9623H13.5517M21.1724 10.9623C21.1724 12.0877 22.0756 13 23.1897 13C24.3037 13 25.2069 12.0877 25.2069 10.9623M21.1724 10.9623C21.1724 9.83685 22.0756 8.92453 23.1897 8.92453C24.3037 8.92453 25.2069 9.83685 25.2069 10.9623M21.1724 3.49057V2C21.1724 1.44772 20.7247 1 20.1724 1H8.27586C7.72358 1 7.27586 1.44772 7.27586 2V9.96226C7.27586 10.5145 7.72358 10.9623 8.27586 10.9623H9.51724M21.1724 3.49057H23.1897M23.1897 3.49057H24.6946C25.0163 3.49057 25.3183 3.64527 25.5062 3.90628L26.8116 5.71938C26.9341 5.88957 27 6.09396 27 6.30366V6.66038M23.1897 3.49057V5.66038C23.1897 6.21266 23.6374 6.66038 24.1897 6.66038H27M27 6.66038V9.96226C27 10.5145 26.5523 10.9623 26 10.9623H25.2069M5.25862 1H1M2.12069 3.49057H5.25862M3.24138 5.75472H5.25862M4.13793 7.79245H5.25862M13.5517 10.9623C13.5517 12.0877 12.6486 13 11.5345 13C10.4204 13 9.51724 12.0877 9.51724 10.9623M13.5517 10.9623C13.5517 9.83685 12.6486 8.92453 11.5345 8.92453C10.4204 8.92453 9.51724 9.83685 9.51724 10.9623" stroke="white" stroke-linecap="round"/></svg>