<svg width="20" height="20" viewBox="0 0 20 20" fill="none" xmlns="http://www.w3.org/2000/svg">
    <path fill-rule="evenodd" clip-rule="evenodd" d="M6.26667 3C3.91025 3 2 4.72911 2 6.86207V13.1379C2 15.2709 3.91025 17 6.26667 17H13.7333C16.0897 17 18 15.2709 18 13.1379V6.86207C18 4.72911 16.0897 3 13.7333 3H6.26667ZM4.43664 6.31853C4.37929 6.26377 4.32602 6.21206 4.27704 6.16388C4.58622 5.44248 5.36046 4.93103 6.26667 4.93103H13.7333C14.6395 4.93103 15.4138 5.44248 15.723 6.16388C15.674 6.21206 15.6207 6.26377 15.5634 6.31853C15.206 6.6598 14.697 7.11313 14.0901 7.56393C12.8269 8.50207 11.3423 9.27586 10 9.27586C8.65774 9.27586 7.17307 8.50207 5.90994 7.56393C5.30296 7.11313 4.79403 6.6598 4.43664 6.31853ZM15.4433 9.05676C15.5899 8.94787 15.7312 8.83909 15.8667 8.73163V13.1379C15.8667 14.2044 14.9115 15.069 13.7333 15.069H6.26667C5.08846 15.069 4.13333 14.2044 4.13333 13.1379V8.73163C4.26881 8.83909 4.41011 8.94787 4.55673 9.05676C5.89359 10.0497 7.8756 11.2069 10 11.2069C12.1244 11.2069 14.1064 10.0497 15.4433 9.05676Z" fill="white"/>
</svg>