<svg width="24" height="24" viewBox="0 0 24 24" fill="none" xmlns="http://www.w3.org/2000/svg">
<g id="facebook" clip-path="url(#clip0_246_24)">
<path id="Subtract" fill-rule="evenodd" clip-rule="evenodd" d="M24 12C24 18.6274 18.6274 24 12 24C5.37258 24 0 18.6274 0 12C0 5.37258 5.37258 0 12 0C18.6274 0 24 5.37258 24 12ZM13.2441 3.68359H15.9024H15.9037V6.55231C15.7514 6.5532 15.2987 6.55287 14.8842 6.55258C14.6906 6.55244 14.5053 6.55231 14.3629 6.55231C14.3609 6.55231 14.3579 6.55224 14.3539 6.55216C14.2423 6.54987 13.3661 6.53185 13.3661 7.4042C13.3718 7.77329 13.3661 9.04423 13.3661 9.04423H15.914L15.7075 11.9013H13.4256V20.3168H9.96837V11.9565H8.08691V9.05238H9.91189C9.91189 8.76003 9.91278 8.47876 9.91366 8.20349C9.91535 7.67015 9.91697 7.15929 9.91189 6.63376C9.91189 4.34708 11.6665 3.68359 13.2441 3.68359Z" fill="#1E1E5C"/>
</g>
<defs>
<clipPath id="clip0_246_24">
<rect width="24" height="24" fill="white"/>
</clipPath>
</defs>
</svg>
