<svg xmlns="http://www.w3.org/2000/svg" width="27" height="31" viewBox="0 0 27 31" fill="none">
    <path d="M0 9.82522V22.0331C0 26.9854 4.00559 31 8.94675 31H10.9917V28.9504H8.94675C6.39541 28.9504 4.16742 27.5629 2.97293 25.4997H5.19231C6.01856 25.4997 6.81096 25.1707 7.3952 24.5852C7.97949 23.9996 8.30769 23.2054 8.30769 22.3773V17.1733C8.30769 16.3452 7.97949 15.5509 7.3952 14.9654C6.81096 14.3798 6.01856 14.0509 5.19231 14.0509H2.07692V9.82522C2.07802 7.7727 2.89165 5.80454 4.33926 4.35272C5.78683 2.9009 7.75004 2.08407 9.79789 2.08163H17.1969C19.2452 2.08439 21.2088 2.90111 22.6571 4.35272C24.1054 5.80433 24.9203 7.77234 24.9231 9.82522V14.0509H21.8077C20.9814 14.0509 20.189 14.3798 19.6048 14.9654C19.0205 15.5509 18.6923 16.3452 18.6923 17.1733V22.3773C18.6923 23.2054 19.0205 23.9996 19.6048 24.5852C20.189 25.1707 20.9814 25.4997 21.8077 25.4997H23.4213C25.3978 25.4997 27 23.8939 27 21.913V9.82522C26.9972 7.22024 25.9636 4.72278 24.1257 2.88076C22.2879 1.03879 19.796 0.00275293 17.1969 0H9.79789C7.19971 0.004132 4.70916 1.04077 2.87244 2.88263C1.03574 4.72444 0.00274673 7.22113 0 9.82522Z"
          fill="#1E1E5C"/>
</svg>