<svg xmlns="http://www.w3.org/2000/svg" width="14" height="14" viewBox="0 0 14 14" fill="none">
    <path d="M5.36434 1.43018L5.90518 2.39929C6.39326 3.27386 6.19734 4.42114 5.42859 5.18987C5.42859 5.18987 4.49624 6.12237 6.18676 7.81296C7.87676 9.50296 8.80984 8.57112 8.80984 8.57112C9.57859 7.80237 10.7258 7.60646 11.6004 8.09454L12.5695 8.63538C13.8902 9.37237 14.0461 11.2244 12.8853 12.3852C12.1878 13.0827 11.3333 13.6255 10.3888 13.6612C8.79868 13.7215 6.09826 13.3191 3.38943 10.6103C0.680618 7.90146 0.278185 5.20106 0.338468 3.61095C0.374276 2.66637 0.91701 1.8119 1.61452 1.1144C2.77531 -0.0463925 4.62732 0.109574 5.36434 1.43018Z"
          fill="white"/>
</svg>