<svg width="23" height="24" viewBox="0 0 23 24" fill="none" xmlns="http://www.w3.org/2000/svg">
<g id="telegram" clip-path="url(#clip0_246_32)">
<g id="Group">
<path id="Subtract" fill-rule="evenodd" clip-rule="evenodd" d="M23 12C23 18.6274 17.8513 24 11.5 24C5.14873 24 0 18.6274 0 12C0 5.37258 5.14873 0 11.5 0C17.8513 0 23 5.37258 23 12ZM11.9118 8.85855L5.20524 11.8729L5.20522 11.873C4.66083 12.0989 4.37565 12.3199 4.34971 12.536C4.30581 12.9012 4.74412 13.045 5.34098 13.2408C5.42214 13.2674 5.50623 13.295 5.59244 13.3243C6.17961 13.5235 6.96945 13.7564 7.38007 13.7657C7.75251 13.7741 8.16824 13.6139 8.6272 13.285C11.7595 11.0786 13.3764 9.96344 13.4779 9.93939C13.5495 9.92266 13.6488 9.90106 13.7161 9.96346C13.7833 10.0259 13.7765 10.1439 13.7696 10.1756C13.7262 10.3687 12.0074 12.0362 11.1168 12.9002C10.8386 13.1701 10.6412 13.3616 10.6009 13.4053C10.5107 13.503 10.4188 13.5954 10.3305 13.6843C9.785 14.233 9.37592 14.6445 10.3531 15.3164L12.9196 17.1153C13.0542 17.2074 13.1828 17.303 13.308 17.3962C13.7845 17.7506 14.2125 18.069 14.7414 18.0183C15.0489 17.9888 15.366 17.6873 15.5273 16.788C15.9082 14.6628 16.6571 10.058 16.8302 8.16061C16.8453 7.99436 16.8263 7.78155 16.8109 7.68819C16.7956 7.59483 16.7636 7.46173 16.6473 7.36323C16.5095 7.24657 16.2968 7.22197 16.2016 7.22372C15.7691 7.23166 15.1055 7.47243 11.9118 8.85855Z" fill="#1E1E5C"/>
</g>
</g>
<defs>
<clipPath id="clip0_246_32">
<rect width="23" height="24" fill="white"/>
</clipPath>
</defs>
</svg>
